# xmcd
#
# Track frame offsets:
#   150
#   17290
#   27720
#   39072
#   49145
#   63340
#   74090
#   86162
#   102275
#   113035
#   126732
#   135990
#   146117
#   159825
#
# Disc length: 2262 seconds
#
# Revision: 0
# Processed by: cddbd v1.5.2PL0 Copyright (c) Steve Scherf et al.
# Submitted via: uFREEDB 1.6.0
#
DISCID=c208d40e
DTITLE=Various Artist - Country Road - Vol. 3
DYEAR=1993
DGENRE=country
TTITLE0=Bobby Bare - Sylvia's Mother
TTITLE1=Freddy Quinn - Carry Me Back To Old Virginny
TTITLE2=Barbara Perry - I'll Hold You Closer Than Love
TTITLE3=Dave Dudley - Fly Away Again
TTITLE4=Ronnie Rogers - Dan D. Derby
TTITLE5=Dave Dudley - My Pick 'Em Up
TTITLE6=Ferlin Husky - I Could Sing All Night
TTITLE7=Bobby Bare- Mary Ann Regrets
TTITLE8=George Kent - I'm A Bad Moon Tonight
TTITLE9=Rick Johnson - I've HeardThose Very Lines Before
TTITLE10=Buddy Meredith - I'm Coming Back In Style
TTITLE11=Bobby Bare - Help Me Make It Through The Night
TTITLE12=Billy Grammer - The Hour Of Separation
TTITLE13=Freddy Quinn - Oh My Darling, Clementine
EXTD=
EXTT0=
EXTT1=
EXTT2=
EXTT3=
EXTT4=
EXTT5=
EXTT6=
EXTT7=
EXTT8=
EXTT9=
EXTT10=
EXTT11=
EXTT12=
EXTT13=
PLAYORDER=
